<svg width="54" height="54" viewBox="0 0 54 54" fill="none" xmlns="http://www.w3.org/2000/svg">
<path d="M37.3494 13.095C35.8117 11.3389 34.9641 9.08415 34.9644 6.75H28.0119V34.65C27.9594 36.1602 27.3223 37.5909 26.2351 38.6404C25.1478 39.6898 23.6955 40.2759 22.1844 40.275C18.9894 40.275 16.3344 37.665 16.3344 34.425C16.3344 30.555 20.0694 27.6525 23.9169 28.845V21.735C16.1544 20.7 9.35938 26.73 9.35938 34.425C9.35938 41.9175 15.5694 47.25 22.1619 47.25C29.2269 47.25 34.9644 41.5125 34.9644 34.425V20.2725C37.7836 22.2972 41.1684 23.3835 44.6394 23.3775V16.425C44.6394 16.425 40.4094 16.6275 37.3494 13.095Z" fill="black"/>
</svg>
